<svg xmlns="http://www.w3.org/2000/svg" width="156.34mm" height="20.04mm" viewBox="0 0 443.16 56.82">
    <g>
        <path d="M195.81,413.44c7.18,0,11,9.67,11,9.67a1.14,1.14,0,0,0,1.76,0l-0.06-10.83a10.13,10.13,0,0,1-3.81.87,35.54,35.54,0,0,0-8.89-1.16c-4.88,0-14.22,1.77-14.22,10.63s11.23,11.14,12,11.35,9.11,2.89,9.11,7.32-3.42,6.18-7.65,6.18-8.46-1.88-12-10.54a1.55,1.55,0,0,0-2,0v9.82s4.23,2.33,14.07,2.33,15.38-5.57,15.38-12-8.24-9.73-11.15-10.74-10-2.75-10-7.12S193.11,413.44,195.81,413.44Z" transform="translate(-49.33 -393.61)" style="fill: #000100"/>
        <g>
            <path d="M381,416.38v33.7l15.57-3.8a0.74,0.74,0,0,0,0-1.12s-5.37-.22-6-3.8l0-27.39H375s-0.8.34,0,1.07C375,415,381,414.77,381,416.38Z" transform="translate(-49.33 -393.61)" style="fill: #000100"/>
            <path d="M356.6,416.38V441.7c0,4.92,4.87,8,10.8,8s12.8-6.24,12.8-6.24V442a15.52,15.52,0,0,1-6.66,1.75c-3.5,0-7.33-2.19-7.33-4.79l0-25H350.55s-0.8.34,0,1.07C350.55,415,356.6,414.77,356.6,416.38Z" transform="translate(-49.33 -393.61)" style="fill: #000100"/>
        </g>
        <g>
            <path d="M415.22,446.17v-33.7l-15.57,3.8a0.74,0.74,0,0,0,0,1.12s5.37,0.22,6,3.8l0,25c0,1.32-5.25,1.23-5.25,1.23a0.65,0.65,0,0,0,0,1.13h20.87s0.8-.34,0-1.07C421.27,447.51,415.22,447.78,415.22,446.17Z" transform="translate(-49.33 -393.61)" style="fill: #000100"/>
            <path d="M439.64,446.17V420.85c0-4.92-4.87-8-10.8-8S416,419.1,416,419.1v1.48a15.52,15.52,0,0,1,6.66-1.75c3.5,0,7.33,2.19,7.33,4.79l0,22.61c0,1.34-4.24,1.28-4.24,1.28a0.68,0.68,0,0,0,0,1.08h19.89s0.8-.34,0-1.07C445.69,447.51,439.64,447.78,439.64,446.17Z" transform="translate(-49.33 -393.61)" style="fill: #000100"/>
        </g>
        <g>
            <path d="M49.65,393.61h26.1s1,0.73,0,1.24c0,0-7.22,0-7.72,1.82v48.55S68.61,447,74.87,447a1.11,1.11,0,0,1,0,1.46H49.65a1,1,0,0,1,0-1.46s6.71,0,7.14-1.75V396.67s-0.15-1.75-7.07-1.75A0.82,0.82,0,0,1,49.65,393.61Z" transform="translate(-49.33 -393.61)" style="fill: #000100"/>
            <path d="M102.43,445.22s0.4,1.26,5.74,1.75a1.11,1.11,0,0,1,0,1.46H82.95a1,1,0,0,1,0-1.46s4.07,0,4.51-1.75a1.92,1.92,0,0,0-.09-1.7c-0.49-1-13.61-23.57-13.61-23.57l-4.91,5v-2.62l19.29-20.12s1.9-2.67,1.9-4-1.69-3.38-7.39-3.38a1.18,1.18,0,0,1,0-1.24h22.5a1,1,0,0,1,0,1.24,16.9,16.9,0,0,0-10.55,4.35c-4.37,4.28-13.27,13.12-13.27,13.12Z" transform="translate(-49.33 -393.61)" style="fill: #000100"/>
        </g>
        <path d="M178.12,446.6c-4.37,0-5.39-2.62-5.39-2.62V393.61l-15.57,3.8a0.74,0.74,0,0,0,0,1.12s5.37,0.22,6,3.8v11.93a36.72,36.72,0,0,0-7.7-1.33c-14.36,0-21.29,9.42-21.29,20.43S142.07,450,149.72,450s12.68-6.18,12.68-6.18v-2.42s-1.43,3.09-7.07,3.09c-4.45,0-10.86-4-10.86-14.23s3.32-15.58,9.33-15.58c6.78,0,8.82,4,9.3,5.31v30l15-2.33C178.88,447,178.12,446.6,178.12,446.6Z" transform="translate(-49.33 -393.61)" style="fill: #000100"/>
        <path d="M492.15,446.6c-4.37,0-5.39-2.62-5.39-2.62V393.61l-15.57,3.8a0.74,0.74,0,0,0,0,1.12s5.37,0.22,6,3.8v11.93a36.72,36.72,0,0,0-7.7-1.33c-14.36,0-21.29,9.42-21.29,20.43S456.1,450,463.75,450s12.68-6.18,12.68-6.18v-2.42s-1.43,3.09-7.07,3.09c-4.45,0-10.86-4-10.86-14.23s3.32-15.58,9.33-15.58c6.78,0,8.82,4,9.3,5.31v30l15-2.33C492.9,447,492.15,446.6,492.15,446.6Z" transform="translate(-49.33 -393.61)" style="fill: #000100"/>
        <path d="M272.41,442.9c-2.77,2.55-3.64,2.08-3.64,2.08-1.6,0-2-1.95-2-1.95V422.49c0-3.56-1.46-9.6-12.61-9.6s-16.41,2.88-16.41,8.84c0,2.67,2.76,4,4.19,4,1.74,0,4.6-1.08,4.6-3.91,0-3.91-2.45-4.08-2.45-4.08s-0.1-2.51,7.46-2.51c6.69,0,5.28,7.14,5.45,7.21,0,0,0,2.58,0,5.93-17.19,2.66-20,9.06-20,13.21s2.73,8.41,7.49,8.41c6.49,0,11.74-6.93,11.74-6.93V442c-3,2.75-11.74,4.3-11.74-3.16,0-7.09,11.47-8.89,12.57-9.05,0,5.16.09,11.42,0.09,13,0,2.82,1.46,7.25,6.42,7.25S273.65,444,273.65,444A1.09,1.09,0,0,0,272.41,442.9Z" transform="translate(-49.33 -393.61)" style="fill: #000100"/>
        <path d="M302.65,412.47c-3.1,0-8,2.43-11.46,10.76V412.47l-15.57,3.8a0.74,0.74,0,0,0,0,1.12s5.37,0.22,6,3.8V446s-0.87,1.48-5.17,1.48a0.79,0.79,0,0,0,0,1.07h20.85s0.8-.34,0-1.07c0,0-6.05.27-6.05-1.34v-20.4c0.68-1.31,4-7.39,6.57-7.39,0,0-.85,4.43,5.84,4.43,0,0,4.22-.2,4.22-5.16C307.82,414,305.78,412.47,302.65,412.47Z" transform="translate(-49.33 -393.61)" style="fill: #000100"/>
        <path d="M328.85,412.54c-11.36,0-18.47,8.48-18.47,18.94s7.11,18.94,18.47,18.94,18.38-8.48,18.38-18.94S340.21,412.54,328.85,412.54Zm0,35.86s-9.21.91-9.21-16.92,9.21-17.05,9.21-17.05,8.92,0.13,8.92,17.39S328.85,448.4,328.85,448.4Z" transform="translate(-49.33 -393.61)" style="fill: #000100"/>
        <g>
            <path d="M116.37,421.24v24.39c-0.28,1.63-5.1,1.61-5.1,1.61a1,1,0,0,0,0,1.34h20.24a1.13,1.13,0,0,0,0-1.34c-5,0-5.5-1.61-5.5-1.61V412.51l-15,3.8a0.74,0.74,0,0,0,0,1.12S116.37,417.66,116.37,421.24Z" transform="translate(-49.33 -393.61)" style="fill: #000100"/>
            <circle cx="71.07" cy="7.44" r="6.18" style="fill: #000100"/>
        </g>
    </g>
</svg>
